<svg width="1317pt" height="760pt" viewBox="0 0 1317 760" xmlns="http://www.w3.org/2000/svg"><path fill="#65a9da" d="M0 0h1317v183.16c-4.25 4.24-9.4 8.05-11.69 13.8-4 10.86-3.55 22.58-3.38 33.95.11 13.59-5.49 26.24-8.87 39.17-1.44-4.71-2.57-9.53-2.87-14.46-.44-4.67-.23-9.55-2.02-13.98-1.27-3.37-5.28-5.42-8.73-4.4-3.24 1.76-5.12 5.13-7.42 7.86-1.74-2.93-3.69-5.92-3.99-9.4-.9-8.49.57-17.08-.65-25.55-.86-5.22-3.27-10.06-6.17-14.42-3.77-5.68-10.22-8.47-15.5-12.45-2.06-1.13-4.32-3.59-6.82-2.27-4.5 2.22-8.16 5.74-12.06 8.82-6.07 4.77-10.38 11.4-13.53 18.37-3.61 8.23.68 17.28-1.45 25.75-.44 1.8-1.86 4-4.01 3.51-5.27-.93-9.9-4.74-15.45-4.07-6.63.65-13.25 1.67-19.93 1.33-.55-10.9-.33-21.81-.08-32.72-.09-3.99.21-8.24-1.56-11.94-3.11-1.88-6.91-1.79-10.41-1.86-6.15.11-12.29.13-18.43.21-3.61.17-7.41.21-10.68 1.91-2.16 4.74-.95 10.34-3.1 15.05-4.04 4.35-10.29 6.08-13.87 10.99-4.33 5.27-6.17 11.96-9.43 17.84-.99 1.47-2.15 3.89-4.32 3.17-3.4-2.73-4.24-7.69-7.9-10.15-4.65-1.82-9.78-1.47-14.67-1.5-7.36.29-14.74.31-22.08.96-3 .37-6.91.91-8.05 4.21-1.9 5.91.3 12.21-.9 18.21-3.75 3.11-9.32.72-13.72.34-1.74-7.83-4.36-15.43-6.9-23.03-1.5-4.87-6.58-7.11-9.08-11.26-1.28-5.17-.17-10.59-.52-15.85-.88-15.67 1.65-31.34.12-46.99-.3-3.06-1.21-6.59-4.37-7.84-9.8-4.64-20.98-3.69-31.51-3.68-8.3.26-16.65-.68-24.91.42-2.02.42-4.95.84-5.33 3.32-1.42 5.7-1.05 11.64-1.63 17.45-4.26.5-8.6.6-12.75 1.69-3.61 1.05-5.22 4.79-7.55 7.38-3.38 4.41-9.68 3.88-14.01 6.82-1.61 1.94-1.65 4.65-1.95 7.05-.54 9.52-.08 19.07.6 28.57.09 2.52.31 5.13-.43 7.58-.95 1.76-2.91 2.65-4.4 3.87-.72-6.96-.44-13.96-.46-20.94.01-8.15-.84-16.3-.42-24.46.16-6.06 1.08-12.21-.08-18.22-.82-4.31-5.52-5.88-9.08-7.32-14.33-5.15-29.57-.64-44.3-2.03-1.13-14.33-.05-28.7-.42-43.04-.27-3.41-.36-8.14-4.24-9.47-7.16-2.52-14.89-2.76-22.14-5.04-17.18-5.07-35.26-2.81-52.81-1.75-1.19 8.09-1.35 16.39.57 24.38 1.98 8.57.04 17.3-.07 25.94-.13 8.89-.81 17.79.09 26.66.54 7.02 1.88 14.05 1.26 21.11-.31 2.1-.65 4.98-3.05 5.69-6.29 1.83-12.94-.1-19.3 1.2-4.64 1-8.09 4.6-12.5 6.14-3.28 1.16-6.81 1.17-10.24 1.22-1.27-6.61-2.13-13.31-2.37-20.04-.31-3.15-.12-6.59-1.79-9.4-2.25-2.6-5.56-3.93-8.46-5.65-1.33-11.58-.74-23.62-4.97-34.67-1.71-4.71-5.44-8.16-8.3-12.12-2.7-4.17-3.1-9.28-4.1-14.01-1.23-6.4-2.81-12.73-4.91-18.89-4.15 14.16-8.51 28.56-16.81 40.95-3.22-5.71-4.26-12.25-4.38-18.72-.2-8.52-4.76-15.94-7.43-23.8-3.16-7.58-4.95-15.62-7.82-23.29-1.66.09-3.39.69-3.8 2.49-3.22 7.86-5.73 16-8.27 24.1-1.54 5.12-4.81 9.59-5.87 14.88-.67 2.79-.86 5.72-2.01 8.38-1.82.78-3.85.73-5.78.74-7.73-.2-15.5-1.58-23.2-.41-3.21.42-5.42 2.99-7.39 5.3-3.89 4.71-7.5 9.7-12.1 13.76-3.01 2.65-6.75 4.21-10.32 5.92 4.47 17.79 5.17 36.35 3.59 54.56-.32 6.12-8.5 7.2-9.46 12.98-.77 4.45-.63 8.99-.88 13.49-7.16 1.16-14.39 1.86-21.63 2.16-2.71-11.05-1.56-22.47-1.76-33.72.09-9.11.39-18.25-.6-27.32-5.1-1.75-11.65-2.68-14.19-8.15-3.67-7.85-2.92-17.41-8.42-24.49-3.06-3.91-7.49-7.91-12.77-7.66-5.3 1.76-6.99 7.84-10.19 11.86-2.78 4.26-8.11 5.68-11.29 9.49-2.24 4.54-1.71 9.84-2.31 14.75-3.53 1.29-7.07 2.57-10.61 3.82-1.04 15.01 1.06 30.13-1.05 45.08-4.92.48-9.89.74-14.7 1.95-4.7 1.14-9.24 2.98-14.07 3.52-4.63.58-9.32-.03-13.95.55-4.65.61-7.68 4.85-12.07 6.08-4.14-.11-7.77-2.46-11.45-4.08-6.82-3.48-14.26-5.44-21.17-8.68-9.85-4.59-19.77-9.03-29.74-13.35-6.4-2.7-12.08-6.86-18.56-9.4-3.91-1.61-8.06-2.92-11.33-5.69-3.09-2.47-5.63-5.85-9.49-7.19-6.76-2.37-14.45-2.59-20.33-7.08-1.19-.98-2.96-2.52-1.97-4.21.89-3.28 4-6.36 3.2-9.85-3.53-3.33-8.78-3.58-13.3-4.59-10.9-1.73-21.75-4.41-32.86-4.08-11.29.2-22.78.82-33.73-2.5-1.38-5.82-1.92-11.83-1.32-17.8.53-5.09-.54-10.13-2.05-14.96-5.99-.43-12.29-1.31-18.08.74-5.82 1.89-7 10.34-3.09 14.52 6.33 1.95 13.09.97 19.61 1.47-.14 3.7-.37 7.4-.67 11.09-7.89-.47-15.74-1.51-23.59-2.42-4.41-.45-9.17-.78-13.21 1.38-4.97 2.59-9.18 6.74-14.78 8.03-5.59 1.6-11.75.69-17.12 3.12-4.08 3.09-6.83 7.57-10.12 11.43 1.36 3.14 2.74 6.28 4.1 9.43-6.23 3.58-12.93 6.31-19.89 8.11-13.6 3.74-26.79 8.92-40.6 11.88-8.86 1.95-17.23 5.52-25.97 7.9-8.64 2.37-16.79 6.17-25.42 8.56-10.78 2.96-21.57 5.93-32.08 9.75V0z"/><path fill="#6188a9" d="M656.31 67.86c.41-1.8 2.14-2.4 3.8-2.49 2.87 7.67 4.66 15.71 7.82 23.29 2.67 7.86 7.23 15.28 7.43 23.8.12 6.47 1.16 13.01 4.38 18.72 8.3-12.39 12.66-26.79 16.81-40.95 2.1 6.16 3.68 12.49 4.91 18.89 1 4.73 1.4 9.84 4.1 14.01 2.86 3.96 6.59 7.41 8.3 12.12 4.23 11.05 3.64 23.09 4.97 34.67 2.9 1.72 6.21 3.05 8.46 5.65 1.67 2.81 1.48 6.25 1.79 9.4.24 6.73 1.1 13.43 2.37 20.04 3.43-.05 6.96-.06 10.24-1.22 4.41-1.54 7.86-5.14 12.5-6.14 6.36-1.3 13.01.63 19.3-1.2 2.4-.71 2.74-3.59 3.05-5.69.62-7.06-.72-14.09-1.26-21.11-.9-8.87-.22-17.77-.09-26.66.11-8.64 2.05-17.37.07-25.94-1.92-7.99-1.76-16.29-.57-24.38 17.55-1.06 35.63-3.32 52.81 1.75 7.25 2.28 14.98 2.52 22.14 5.04 3.88 1.33 3.97 6.06 4.24 9.47.37 14.34-.71 28.71.42 43.04 14.73 1.39 29.97-3.12 44.3 2.03 3.56 1.44 8.26 3.01 9.08 7.32 1.16 6.01.24 12.16.08 18.22-.42 8.16.43 16.31.42 24.46.02 6.98-.26 13.98.46 20.94 1.49-1.22 3.45-2.11 4.4-3.87.74-2.45.52-5.06.43-7.58-.68-9.5-1.14-19.05-.6-28.57.3-2.4.34-5.11 1.95-7.05 4.33-2.94 10.63-2.41 14.01-6.82 2.33-2.59 3.94-6.33 7.55-7.38 4.15-1.09 8.49-1.19 12.75-1.69.58-5.81.21-11.75 1.63-17.45.38-2.48 3.31-2.9 5.33-3.32 8.26-1.1 16.61-.16 24.91-.42 10.53-.01 21.71-.96 31.51 3.68 3.16 1.25 4.07 4.78 4.37 7.84 1.53 15.65-1 31.32-.12 46.99.35 5.26-.76 10.68.52 15.85 2.5 4.15 7.58 6.39 9.08 11.26 2.54 7.6 5.16 15.2 6.9 23.03 4.4.38 9.97 2.77 13.72-.34 1.2-6-1-12.3.9-18.21 1.14-3.3 5.05-3.84 8.05-4.21 7.34-.65 14.72-.67 22.08-.96 4.89.03 10.02-.32 14.67 1.5 3.66 2.46 4.5 7.42 7.9 10.15 2.17.72 3.33-1.7 4.32-3.17 3.26-5.88 5.1-12.57 9.43-17.84 3.58-4.91 9.83-6.64 13.87-10.99 2.15-4.71.94-10.31 3.1-15.05 3.27-1.7 7.07-1.74 10.68-1.91 6.14-.08 12.28-.1 18.43-.21 3.5.07 7.3-.02 10.41 1.86 1.77 3.7 1.47 7.95 1.56 11.94-.25 10.91-.47 21.82.08 32.72 6.68.34 13.3-.68 19.93-1.33 5.55-.67 10.18 3.14 15.45 4.07 2.15.49 3.57-1.71 4.01-3.51 2.13-8.47-2.16-17.52 1.45-25.75 3.15-6.97 7.46-13.6 13.53-18.37 3.9-3.08 7.56-6.6 12.06-8.82 2.5-1.32 4.76 1.14 6.82 2.27 5.28 3.98 11.73 6.77 15.5 12.45 2.9 4.36 5.31 9.2 6.17 14.42 1.22 8.47-.25 17.06.65 25.55.3 3.48 2.25 6.47 3.99 9.4 2.3-2.73 4.18-6.1 7.42-7.86 3.45-1.02 7.46 1.03 8.73 4.4 1.79 4.43 1.58 9.31 2.02 13.98.3 4.93 1.43 9.75 2.87 14.46 3.38-12.93 8.98-25.58 8.87-39.17-.17-11.37-.62-23.09 3.38-33.95 2.29-5.75 7.44-9.56 11.69-13.8V760H0V211.01c10.51-3.82 21.3-6.79 32.08-9.75 8.63-2.39 16.78-6.19 25.42-8.56 8.74-2.38 17.11-5.95 25.97-7.9 13.81-2.96 27-8.14 40.6-11.88 6.96-1.8 13.66-4.53 19.89-8.11-1.36-3.15-2.74-6.29-4.1-9.43 3.29-3.86 6.04-8.34 10.12-11.43 5.37-2.43 11.53-1.52 17.12-3.12 5.6-1.29 9.81-5.44 14.78-8.03 4.04-2.16 8.8-1.83 13.21-1.38 7.85.91 15.7 1.95 23.59 2.42.3-3.69.53-7.39.67-11.09-6.52-.5-13.28.48-19.61-1.47-3.91-4.18-2.73-12.63 3.09-14.52 5.79-2.05 12.09-1.17 18.08-.74 1.51 4.83 2.58 9.87 2.05 14.96-.6 5.97-.06 11.98 1.32 17.8 10.95 3.32 22.44 2.7 33.73 2.5 11.11-.33 21.96 2.35 32.86 4.08 4.52 1.01 9.77 1.26 13.3 4.59.8 3.49-2.31 6.57-3.2 9.85-.99 1.69.78 3.23 1.97 4.21 5.88 4.49 13.57 4.71 20.33 7.08 3.86 1.34 6.4 4.72 9.49 7.19 3.27 2.77 7.42 4.08 11.33 5.69 6.48 2.54 12.16 6.7 18.56 9.4 9.97 4.32 19.89 8.76 29.74 13.35 6.91 3.24 14.35 5.2 21.17 8.68 3.68 1.62 7.31 3.97 11.45 4.08 4.39-1.23 7.42-5.47 12.07-6.08 4.63-.58 9.32.03 13.95-.55 4.83-.54 9.37-2.38 14.07-3.52 4.81-1.21 9.78-1.47 14.7-1.95 2.11-14.95.01-30.07 1.05-45.08 3.54-1.25 7.08-2.53 10.61-3.82.6-4.91.07-10.21 2.31-14.75 3.18-3.81 8.51-5.23 11.29-9.49 3.2-4.02 4.89-10.1 10.19-11.86 5.28-.25 9.71 3.75 12.77 7.66 5.5 7.08 4.75 16.64 8.42 24.49 2.54 5.47 9.09 6.4 14.19 8.15.99 9.07.69 18.21.6 27.32.2 11.25-.95 22.67 1.76 33.72 7.24-.3 14.47-1 21.63-2.16.25-4.5.11-9.04.88-13.49.96-5.78 9.14-6.86 9.46-12.98 1.58-18.21.88-36.77-3.59-54.56 3.57-1.71 7.31-3.27 10.32-5.92 4.6-4.06 8.21-9.05 12.1-13.76 1.97-2.31 4.18-4.88 7.39-5.3 7.7-1.17 15.47.21 23.2.41 1.93-.01 3.96.04 5.78-.74 1.15-2.66 1.34-5.59 2.01-8.38 1.06-5.29 4.33-9.76 5.87-14.88 2.54-8.1 5.05-16.24 8.27-24.1z"/></svg>