<?xml version="1.0" encoding="UTF-8" ?>
<!DOCTYPE svg PUBLIC "-//W3C//DTD SVG 1.1//EN" "http://www.w3.org/Graphics/SVG/1.1/DTD/svg11.dtd">
<svg width="1317pt" height="760pt" viewBox="0 0 1317 760" version="1.1" xmlns="http://www.w3.org/2000/svg">
<path fill="#65a9da" d=" M 0.00 0.00 L 1317.00 0.00 L 1317.00 183.16 C 1312.75 187.40 1307.60 191.21 1305.31 196.96 C 1301.31 207.82 1301.76 219.54 1301.93 230.91 C 1302.04 244.50 1296.44 257.15 1293.06 270.08 C 1291.62 265.37 1290.49 260.55 1290.19 255.62 C 1289.75 250.95 1289.96 246.07 1288.17 241.64 C 1286.90 238.27 1282.89 236.22 1279.44 237.24 C 1276.20 239.00 1274.32 242.37 1272.02 245.10 C 1270.28 242.17 1268.33 239.18 1268.03 235.70 C 1267.13 227.21 1268.60 218.62 1267.38 210.15 C 1266.52 204.93 1264.11 200.09 1261.21 195.73 C 1257.44 190.05 1250.99 187.26 1245.71 183.28 C 1243.65 182.15 1241.39 179.69 1238.89 181.01 C 1234.39 183.23 1230.73 186.75 1226.83 189.83 C 1220.76 194.60 1216.45 201.23 1213.30 208.20 C 1209.69 216.43 1213.98 225.48 1211.85 233.95 C 1211.41 235.75 1209.99 237.95 1207.84 237.46 C 1202.57 236.53 1197.94 232.72 1192.39 233.39 C 1185.76 234.04 1179.14 235.06 1172.46 234.72 C 1171.91 223.82 1172.13 212.91 1172.38 202.00 C 1172.29 198.01 1172.59 193.76 1170.82 190.06 C 1167.71 188.18 1163.91 188.27 1160.41 188.20 C 1154.26 188.31 1148.12 188.33 1141.98 188.41 C 1138.37 188.58 1134.57 188.62 1131.30 190.32 C 1129.14 195.06 1130.35 200.66 1128.20 205.37 C 1124.16 209.72 1117.91 211.45 1114.33 216.36 C 1110.00 221.63 1108.16 228.32 1104.90 234.20 C 1103.91 235.67 1102.75 238.09 1100.58 237.37 C 1097.18 234.64 1096.34 229.68 1092.68 227.22 C 1088.03 225.40 1082.90 225.75 1078.01 225.72 C 1070.65 226.01 1063.27 226.03 1055.93 226.68 C 1052.93 227.05 1049.02 227.59 1047.88 230.89 C 1045.98 236.80 1048.18 243.10 1046.98 249.10 C 1043.23 252.21 1037.66 249.82 1033.26 249.44 C 1031.52 241.61 1028.90 234.01 1026.36 226.41 C 1024.86 221.54 1019.78 219.30 1017.28 215.15 C 1016.00 209.98 1017.11 204.56 1016.76 199.30 C 1015.88 183.63 1018.41 167.96 1016.88 152.31 C 1016.58 149.25 1015.67 145.72 1012.51 144.47 C 1002.71 139.83 991.53 140.78 981.00 140.79 C 972.70 141.05 964.35 140.11 956.09 141.21 C 954.07 141.63 951.14 142.05 950.76 144.53 C 949.34 150.23 949.71 156.17 949.13 161.98 C 944.87 162.48 940.53 162.58 936.38 163.67 C 932.77 164.72 931.16 168.46 928.83 171.05 C 925.45 175.46 919.15 174.93 914.82 177.87 C 913.21 179.81 913.17 182.52 912.87 184.92 C 912.33 194.44 912.79 203.99 913.47 213.49 C 913.56 216.01 913.78 218.62 913.04 221.07 C 912.09 222.83 910.13 223.72 908.64 224.94 C 907.92 217.98 908.20 210.98 908.18 204.00 C 908.19 195.85 907.34 187.70 907.76 179.54 C 907.92 173.48 908.84 167.33 907.68 161.32 C 906.86 157.01 902.16 155.44 898.60 154.00 C 884.27 148.85 869.03 153.36 854.30 151.97 C 853.17 137.64 854.25 123.27 853.88 108.93 C 853.61 105.52 853.52 100.79 849.64 99.46 C 842.48 96.94 834.75 96.70 827.50 94.42 C 810.32 89.35 792.24 91.61 774.69 92.67 C 773.50 100.76 773.34 109.06 775.26 117.05 C 777.24 125.62 775.30 134.35 775.19 142.99 C 775.06 151.88 774.38 160.78 775.28 169.65 C 775.82 176.67 777.16 183.70 776.54 190.76 C 776.23 192.86 775.89 195.74 773.49 196.45 C 767.20 198.28 760.55 196.35 754.19 197.65 C 749.55 198.65 746.10 202.25 741.69 203.79 C 738.41 204.95 734.88 204.96 731.45 205.01 C 730.18 198.40 729.32 191.70 729.08 184.97 C 728.77 181.82 728.96 178.38 727.29 175.57 C 725.04 172.97 721.73 171.64 718.83 169.92 C 717.50 158.34 718.09 146.30 713.86 135.25 C 712.15 130.54 708.42 127.09 705.56 123.13 C 702.86 118.96 702.46 113.85 701.46 109.12 C 700.23 102.72 698.65 96.39 696.55 90.23 C 692.40 104.39 688.04 118.79 679.74 131.18 C 676.52 125.47 675.48 118.93 675.36 112.46 C 675.16 103.94 670.60 96.52 667.93 88.66 C 664.77 81.08 662.98 73.04 660.11 65.37 C 658.45 65.46 656.72 66.06 656.31 67.86 C 653.09 75.72 650.58 83.86 648.04 91.96 C 646.50 97.08 643.23 101.55 642.17 106.84 C 641.50 109.63 641.31 112.56 640.16 115.22 C 638.34 116.00 636.31 115.95 634.38 115.96 C 626.65 115.76 618.88 114.38 611.18 115.55 C 607.97 115.97 605.76 118.54 603.79 120.85 C 599.90 125.56 596.29 130.55 591.69 134.61 C 588.68 137.26 584.94 138.82 581.37 140.53 C 585.84 158.32 586.54 176.88 584.96 195.09 C 584.64 201.21 576.46 202.29 575.50 208.07 C 574.73 212.52 574.87 217.06 574.62 221.56 C 567.46 222.72 560.23 223.42 552.99 223.72 C 550.28 212.67 551.43 201.25 551.23 190.00 C 551.32 180.89 551.62 171.75 550.63 162.68 C 545.53 160.93 538.98 160.00 536.44 154.53 C 532.77 146.68 533.52 137.12 528.02 130.04 C 524.96 126.13 520.53 122.13 515.25 122.38 C 509.95 124.14 508.26 130.22 505.06 134.24 C 502.28 138.50 496.95 139.92 493.77 143.73 C 491.53 148.27 492.06 153.57 491.46 158.48 C 487.93 159.77 484.39 161.05 480.85 162.30 C 479.81 177.31 481.91 192.43 479.80 207.38 C 474.88 207.86 469.91 208.12 465.10 209.33 C 460.40 210.47 455.86 212.31 451.03 212.85 C 446.40 213.43 441.71 212.82 437.08 213.40 C 432.43 214.01 429.40 218.25 425.01 219.48 C 420.87 219.37 417.24 217.02 413.56 215.40 C 406.74 211.92 399.30 209.96 392.39 206.72 C 382.54 202.13 372.62 197.69 362.65 193.37 C 356.25 190.67 350.57 186.51 344.09 183.97 C 340.18 182.36 336.03 181.05 332.76 178.28 C 329.67 175.81 327.13 172.43 323.27 171.09 C 316.51 168.72 308.82 168.50 302.94 164.01 C 301.75 163.03 299.98 161.49 300.97 159.80 C 301.86 156.52 304.97 153.44 304.17 149.95 C 300.64 146.62 295.39 146.37 290.87 145.36 C 279.97 143.63 269.12 140.95 258.01 141.28 C 246.72 141.48 235.23 142.10 224.28 138.78 C 222.90 132.96 222.36 126.95 222.96 120.98 C 223.49 115.89 222.42 110.85 220.91 106.02 C 214.92 105.59 208.62 104.71 202.83 106.76 C 197.01 108.65 195.83 117.10 199.74 121.28 C 206.07 123.23 212.83 122.25 219.35 122.75 C 219.21 126.45 218.98 130.15 218.68 133.84 C 210.79 133.37 202.94 132.33 195.09 131.42 C 190.68 130.97 185.92 130.64 181.88 132.80 C 176.91 135.39 172.70 139.54 167.10 140.83 C 161.51 142.43 155.35 141.52 149.98 143.95 C 145.90 147.04 143.15 151.52 139.86 155.38 C 141.22 158.52 142.60 161.66 143.96 164.81 C 137.73 168.39 131.03 171.12 124.07 172.92 C 110.47 176.66 97.28 181.84 83.47 184.80 C 74.61 186.75 66.24 190.32 57.50 192.70 C 48.86 195.07 40.71 198.87 32.08 201.26 C 21.30 204.22 10.51 207.19 0.00 211.01 L 0.00 0.00 Z" />
<path fill="#6188a9" d=" M 656.31 67.86 C 656.72 66.06 658.45 65.46 660.11 65.37 C 662.98 73.04 664.77 81.08 667.93 88.66 C 670.60 96.52 675.16 103.94 675.36 112.46 C 675.48 118.93 676.52 125.47 679.74 131.18 C 688.04 118.79 692.40 104.39 696.55 90.23 C 698.65 96.39 700.23 102.72 701.46 109.12 C 702.46 113.85 702.86 118.96 705.56 123.13 C 708.42 127.09 712.15 130.54 713.86 135.25 C 718.09 146.30 717.50 158.34 718.83 169.92 C 721.73 171.64 725.04 172.97 727.29 175.57 C 728.96 178.38 728.77 181.82 729.08 184.97 C 729.32 191.70 730.18 198.40 731.45 205.01 C 734.88 204.96 738.41 204.95 741.69 203.79 C 746.10 202.25 749.55 198.65 754.19 197.65 C 760.55 196.35 767.20 198.28 773.49 196.45 C 775.89 195.74 776.23 192.86 776.54 190.76 C 777.16 183.70 775.82 176.67 775.28 169.65 C 774.38 160.78 775.06 151.88 775.19 142.99 C 775.30 134.35 777.24 125.62 775.26 117.05 C 773.34 109.06 773.50 100.76 774.69 92.67 C 792.24 91.61 810.32 89.35 827.50 94.42 C 834.75 96.70 842.48 96.94 849.64 99.46 C 853.52 100.79 853.61 105.52 853.88 108.93 C 854.25 123.27 853.17 137.64 854.30 151.97 C 869.03 153.36 884.27 148.85 898.60 154.00 C 902.16 155.44 906.86 157.01 907.68 161.32 C 908.84 167.33 907.92 173.48 907.76 179.54 C 907.34 187.70 908.19 195.85 908.18 204.00 C 908.20 210.98 907.92 217.98 908.64 224.94 C 910.13 223.72 912.09 222.83 913.04 221.07 C 913.78 218.62 913.56 216.01 913.47 213.49 C 912.79 203.99 912.33 194.44 912.87 184.92 C 913.17 182.52 913.21 179.81 914.82 177.87 C 919.15 174.93 925.45 175.46 928.83 171.05 C 931.16 168.46 932.77 164.72 936.38 163.67 C 940.53 162.58 944.87 162.48 949.13 161.98 C 949.71 156.17 949.34 150.23 950.76 144.53 C 951.14 142.05 954.07 141.63 956.09 141.21 C 964.35 140.11 972.70 141.05 981.00 140.79 C 991.53 140.78 1002.71 139.83 1012.51 144.47 C 1015.67 145.72 1016.58 149.25 1016.88 152.31 C 1018.41 167.96 1015.88 183.63 1016.76 199.30 C 1017.11 204.56 1016.00 209.98 1017.28 215.15 C 1019.78 219.30 1024.86 221.54 1026.36 226.41 C 1028.90 234.01 1031.52 241.61 1033.26 249.44 C 1037.66 249.82 1043.23 252.21 1046.98 249.10 C 1048.18 243.10 1045.98 236.80 1047.88 230.89 C 1049.02 227.59 1052.93 227.05 1055.93 226.68 C 1063.27 226.03 1070.65 226.01 1078.01 225.72 C 1082.90 225.75 1088.03 225.40 1092.68 227.22 C 1096.34 229.68 1097.18 234.64 1100.58 237.37 C 1102.75 238.09 1103.91 235.67 1104.90 234.20 C 1108.16 228.32 1110.00 221.63 1114.33 216.36 C 1117.91 211.45 1124.16 209.72 1128.20 205.37 C 1130.35 200.66 1129.14 195.06 1131.30 190.32 C 1134.57 188.62 1138.37 188.58 1141.98 188.41 C 1148.12 188.33 1154.26 188.31 1160.41 188.20 C 1163.91 188.27 1167.71 188.18 1170.82 190.06 C 1172.59 193.76 1172.29 198.01 1172.38 202.00 C 1172.13 212.91 1171.91 223.82 1172.46 234.72 C 1179.14 235.06 1185.76 234.04 1192.39 233.39 C 1197.94 232.72 1202.57 236.53 1207.84 237.46 C 1209.99 237.95 1211.41 235.75 1211.85 233.95 C 1213.98 225.48 1209.69 216.43 1213.30 208.20 C 1216.45 201.23 1220.76 194.60 1226.83 189.83 C 1230.73 186.75 1234.39 183.23 1238.89 181.01 C 1241.39 179.69 1243.65 182.15 1245.71 183.28 C 1250.99 187.26 1257.44 190.05 1261.21 195.73 C 1264.11 200.09 1266.52 204.93 1267.38 210.15 C 1268.60 218.62 1267.13 227.21 1268.03 235.70 C 1268.33 239.18 1270.28 242.17 1272.02 245.10 C 1274.32 242.37 1276.20 239.00 1279.44 237.24 C 1282.89 236.22 1286.90 238.27 1288.17 241.64 C 1289.96 246.07 1289.75 250.95 1290.19 255.62 C 1290.49 260.55 1291.62 265.37 1293.06 270.08 C 1296.44 257.15 1302.04 244.50 1301.93 230.91 C 1301.76 219.54 1301.31 207.82 1305.31 196.96 C 1307.60 191.21 1312.75 187.40 1317.00 183.16 L 1317.00 760.00 L 0.00 760.00 L 0.00 211.01 C 10.51 207.19 21.30 204.22 32.08 201.26 C 40.71 198.87 48.86 195.07 57.50 192.70 C 66.24 190.32 74.61 186.75 83.47 184.80 C 97.28 181.84 110.47 176.66 124.07 172.92 C 131.03 171.12 137.73 168.39 143.96 164.81 C 142.60 161.66 141.22 158.52 139.86 155.38 C 143.15 151.52 145.90 147.04 149.98 143.95 C 155.35 141.52 161.51 142.43 167.10 140.83 C 172.70 139.54 176.91 135.39 181.88 132.80 C 185.92 130.64 190.68 130.97 195.09 131.42 C 202.94 132.33 210.79 133.37 218.68 133.84 C 218.98 130.15 219.21 126.45 219.35 122.75 C 212.83 122.25 206.07 123.23 199.74 121.28 C 195.83 117.10 197.01 108.65 202.83 106.76 C 208.62 104.71 214.92 105.59 220.91 106.02 C 222.42 110.85 223.49 115.89 222.96 120.98 C 222.36 126.95 222.90 132.96 224.28 138.78 C 235.23 142.10 246.72 141.48 258.01 141.28 C 269.12 140.95 279.97 143.63 290.87 145.36 C 295.39 146.37 300.64 146.62 304.17 149.95 C 304.97 153.44 301.86 156.52 300.97 159.80 C 299.98 161.49 301.75 163.03 302.94 164.01 C 308.82 168.50 316.51 168.72 323.27 171.09 C 327.13 172.43 329.67 175.81 332.76 178.28 C 336.03 181.05 340.18 182.36 344.09 183.97 C 350.57 186.51 356.25 190.67 362.65 193.37 C 372.62 197.69 382.54 202.13 392.39 206.72 C 399.30 209.96 406.74 211.92 413.56 215.40 C 417.24 217.02 420.87 219.37 425.01 219.48 C 429.40 218.25 432.43 214.01 437.08 213.40 C 441.71 212.82 446.40 213.43 451.03 212.85 C 455.86 212.31 460.40 210.47 465.10 209.33 C 469.91 208.12 474.88 207.86 479.80 207.38 C 481.91 192.43 479.81 177.31 480.85 162.30 C 484.39 161.05 487.93 159.77 491.46 158.48 C 492.06 153.57 491.53 148.27 493.77 143.73 C 496.95 139.92 502.28 138.50 505.06 134.24 C 508.26 130.22 509.95 124.14 515.25 122.38 C 520.53 122.13 524.96 126.13 528.02 130.04 C 533.52 137.12 532.77 146.68 536.44 154.53 C 538.98 160.00 545.53 160.93 550.63 162.68 C 551.62 171.75 551.32 180.89 551.23 190.00 C 551.43 201.25 550.28 212.67 552.99 223.72 C 560.23 223.42 567.46 222.72 574.62 221.56 C 574.87 217.06 574.73 212.52 575.50 208.07 C 576.46 202.29 584.64 201.21 584.96 195.09 C 586.54 176.88 585.84 158.32 581.37 140.53 C 584.94 138.82 588.68 137.26 591.69 134.61 C 596.29 130.55 599.90 125.56 603.79 120.85 C 605.76 118.54 607.97 115.97 611.18 115.55 C 618.88 114.38 626.65 115.76 634.38 115.96 C 636.31 115.95 638.34 116.00 640.16 115.22 C 641.31 112.56 641.50 109.63 642.17 106.84 C 643.23 101.55 646.50 97.08 648.04 91.96 C 650.58 83.86 653.09 75.72 656.31 67.86 Z" />
</svg>
